# xmcd
#
# Track frame offsets:
#	150
#	25716
#	42072
#	60240
#	79233
#	98291
#	115777
#	130266
#	148910
#	165462
#	182112
#	202996
#	222545
#	242149
#
# Disc length: 3480 seconds
#
# Revision: 1
# Processed by: cddbd v1.5.1PL0 Copyright (c) Steve Scherf et al.
# Submitted via: EasyCDDAExtractor 6.5.0.1
#
DISCID=b70d960e
DTITLE=Faith Hill - Breathe
DYEAR=1999
DGENRE=Country
TTITLE0=What's In It For Me
TTITLE1=I Got My Baby
TTITLE2=Love Is A Sweet Thing
TTITLE3=Breathe
TTITLE4=Let's Make Love (w-Tim McGraw)
TTITLE5=It Will Be Me
TTITLE6=The Way That You Love Me
TTITLE7=If I'm Not In Love
TTITLE8=Bringing Out The Elvis
TTITLE9=If My Heart Had Wings
TTITLE10=If I Should Fall Behind
TTITLE11=That's How Love Moves
TTITLE12=There Will Come A Day
TTITLE13=It All Comes Down To Love
EXTD=
EXTT0=
EXTT1=
EXTT2=
EXTT3=
EXTT4=
EXTT5=
EXTT6=
EXTT7=
EXTT8=
EXTT9=
EXTT10=
EXTT11=
EXTT12=
EXTT13=
PLAYORDER=
